REM DIRINDEX 1\3,1\4,1\5,1\6,1\2\7,1\2\8,1\2\9,1\10
REM DIRNAME folder01,folder02,folder03,folder04,folder05,folder06,folder07,folder08,folder09,folder10
TITLE ""
FILE "2-15 Level 4-675-683.mp3" MP3
  TRACK 01 AUDIO
    TITLE "0:"
    INDEX 01 00:00:00
  TRACK 02 AUDIO
    TITLE "7:cjc056_2304"
    INDEX 01 00:00:07
  TRACK 03 AUDIO
    TITLE "0:"
    INDEX 01 00:01:28
  TRACK 04 AUDIO
    TITLE "8:cjc056_2305"
    INDEX 01 00:01:40
  TRACK 05 AUDIO
    TITLE "0:"
    INDEX 01 00:02:47
  TRACK 06 AUDIO
    TITLE "9:cjc056_2306"
    INDEX 01 00:02:61
  TRACK 07 AUDIO
    TITLE "0:"
    INDEX 01 00:04:58
  TRACK 08 AUDIO
    TITLE "7:cjc056_2307"
    INDEX 01 00:05:32
  TRACK 09 AUDIO
    TITLE "0:"
    INDEX 01 00:06:39
  TRACK 10 AUDIO
    TITLE "8:cjc056_2308"
    INDEX 01 00:06:53
  TRACK 11 AUDIO
    TITLE "0:"
    INDEX 01 00:07:56
  TRACK 12 AUDIO
    TITLE "9:cjc056_2309"
    INDEX 01 00:07:70
  TRACK 13 AUDIO
    TITLE "0:"
    INDEX 01 00:10:08
  TRACK 14 AUDIO
    TITLE "7:cjc056_2310"
    INDEX 01 00:10:59
  TRACK 15 AUDIO
    TITLE "0:"
    INDEX 01 00:12:03
  TRACK 16 AUDIO
    TITLE "8:cjc056_2311"
    INDEX 01 00:12:12
  TRACK 17 AUDIO
    TITLE "0:"
    INDEX 01 00:13:16
  TRACK 18 AUDIO
    TITLE "9:cjc056_2312"
    INDEX 01 00:13:28
  TRACK 19 AUDIO
    TITLE "0:"
    INDEX 01 00:14:64
  TRACK 20 AUDIO
    TITLE "7:cjc056_2313"
    INDEX 01 00:15:42
  TRACK 21 AUDIO
    TITLE "0:"
    INDEX 01 00:16:57
  TRACK 22 AUDIO
    TITLE "8:cjc056_2314"
    INDEX 01 00:16:71
  TRACK 23 AUDIO
    TITLE "0:"
    INDEX 01 00:17:65
  TRACK 24 AUDIO
    TITLE "9:cjc056_2315"
    INDEX 01 00:18:03
  TRACK 25 AUDIO
    TITLE "0:"
    INDEX 01 00:19:50
  TRACK 26 AUDIO
    TITLE "7:cjc056_2316"
    INDEX 01 00:20:28
  TRACK 27 AUDIO
    TITLE "0:"
    INDEX 01 00:21:41
  TRACK 28 AUDIO
    TITLE "8:cjc056_2317"
    INDEX 01 00:21:57
  TRACK 29 AUDIO
    TITLE "0:"
    INDEX 01 00:22:54
  TRACK 30 AUDIO
    TITLE "9:cjc056_2318"
    INDEX 01 00:22:68
  TRACK 31 AUDIO
    TITLE "0:"
    INDEX 01 00:24:43
  TRACK 32 AUDIO
    TITLE "7:cjc056_2319"
    INDEX 01 00:25:21
  TRACK 33 AUDIO
    TITLE "0:"
    INDEX 01 00:26:30
  TRACK 34 AUDIO
    TITLE "8:cjc056_2320"
    INDEX 01 00:26:44
  TRACK 35 AUDIO
    TITLE "0:"
    INDEX 01 00:28:31
  TRACK 36 AUDIO
    TITLE "9:cjc056_2321"
    INDEX 01 00:28:43
  TRACK 37 AUDIO
    TITLE "0:"
    INDEX 01 00:30:38
  TRACK 38 AUDIO
    TITLE "7:cjc056_2322"
    INDEX 01 00:31:16
  TRACK 39 AUDIO
    TITLE "0:"
    INDEX 01 00:32:23
  TRACK 40 AUDIO
    TITLE "8:cjc056_2323"
    INDEX 01 00:32:35
  TRACK 41 AUDIO
    TITLE "0:"
    INDEX 01 00:34:00
  TRACK 42 AUDIO
    TITLE "9:cjc056_2324"
    INDEX 01 00:34:08
  TRACK 43 AUDIO
    TITLE "0:"
    INDEX 01 00:36:25
  TRACK 44 AUDIO
    TITLE "7:cjc056_2325"
    INDEX 01 00:36:68
  TRACK 45 AUDIO
    TITLE "0:"
    INDEX 01 00:37:65
  TRACK 46 AUDIO
    TITLE "8:cjc056_2326"
    INDEX 01 00:37:73
  TRACK 47 AUDIO
    TITLE "0:"
    INDEX 01 00:39:45
  TRACK 48 AUDIO
    TITLE "9:cjc056_2327"
    INDEX 01 00:39:58
  TRACK 49 AUDIO
    TITLE "0:"
    INDEX 01 00:41:22
  TRACK 50 AUDIO
    TITLE "8:cjc056_2328"
    INDEX 01 00:41:47
  TRACK 51 AUDIO
    TITLE "0:"
    INDEX 01 00:43:21
  TRACK 52 AUDIO
    TITLE "9:cjc056_2329"
    INDEX 01 00:43:33
  TRACK 53 AUDIO
    TITLE "0:"
    INDEX 01 00:45:71
  TRACK 54 AUDIO
    TITLE "7:cjc056_2330"
    INDEX 01 00:46:45
  TRACK 55 AUDIO
    TITLE "0:"
    INDEX 01 00:47:58
  TRACK 56 AUDIO
    TITLE "8:cjc056_2331"
    INDEX 01 00:47:74
  TRACK 57 AUDIO
    TITLE "0:"
    INDEX 01 00:49:33
  TRACK 58 AUDIO
    TITLE "9:cjc056_2332"
    INDEX 01 00:49:45
  TRACK 59 AUDIO
    TITLE "0:"
    INDEX 01 00:51:50
